<svg xmlns="http://www.w3.org/2000/svg" viewBox="0 0 194.6 35.3" width="305" height="72.67"><defs>
<style type="text/css">
	.st0{fill-rule:evenodd;clip-rule:evenodd;fill:#24B1E7;}
	.st1{fill-rule:evenodd;clip-rule:evenodd;fill:#5DC4F0;}
	.st2{fill-rule:evenodd;clip-rule:evenodd;fill:#0392C7;}
	.st3{fill-rule:evenodd;clip-rule:evenodd;fill:#00020B;}
</style></defs>

<g>
	<path class="st0" d="M18.5,6.3H22V28c0,1.9-1.6,3.5-3.5,3.5H15V9.8C15,7.9,16.6,6.3,18.5,6.3L18.5,6.3z"/>
	<path class="st1" d="M25.1,6.3h7v12.5c0,1.9-1.6,3.5-3.5,3.5h-3.5L25.1,6.3L25.1,6.3z"/>
	<path class="st2" d="M12,31.5H5V19.1c0-1.9,1.6-3.5,3.5-3.5H12L12,31.5L12,31.5z"/>
	<polygon class="st1" points="27.8,27.5 31.8,27.5 31.8,31.5 27.8,31.5 	"/>
	<polygon class="st1" points="5,6.3 9,6.3 9,10.3 5,10.3 	"/>
	<path class="st3" d="M44.6,12.7h-5.1v12.5h2.4v-3.7h2.7c3.1,0,4.9-1.7,4.9-4.5C49.6,14.2,47.8,12.7,44.6,12.7L44.6,12.7z
		 M44.5,19.4h-2.6v-4.6h2.6c1.8,0,2.8,0.8,2.8,2.3C47.3,18.6,46.3,19.4,44.5,19.4L44.5,19.4z M62.1,25.2L59.3,21
		c1.6-0.7,2.5-2.1,2.5-4c0-2.8-1.8-4.3-5.1-4.3h-5.2v12.5h2.4v-3.7h2.8c0.2,0,0.3,0,0.5,0l2.2,3.7L62.1,25.2L62.1,25.2z M53.9,14.8
		h2.8c1.8,0,2.8,0.8,2.8,2.3c0,1.6-1,2.3-2.8,2.3h-2.8V14.8L53.9,14.8z M70.1,12.6c-3.8,0-6.7,2.7-6.7,6.3c0,3.6,2.9,6.4,6.7,6.4
		s6.7-2.8,6.7-6.4C76.8,15.3,73.9,12.6,70.1,12.6L70.1,12.6z M70.2,14.7c2.3,0,4.2,1.8,4.2,4.2s-1.9,4.2-4.2,4.2
		c-2.3,0-4.3-1.9-4.3-4.2C65.9,16.6,67.8,14.7,70.2,14.7L70.2,14.7z M86.9,22.3c-0.9,0.5-1.8,0.8-2.7,0.8c-2.4,0-4.3-1.8-4.3-4.2
		c0-2.4,1.9-4.2,4.3-4.2c1.3,0,2.6,0.5,3.5,1.4l1.4-1.8c-1.3-1.1-3.1-1.8-4.9-1.8c-3.8,0-6.8,2.7-6.8,6.3s2.9,6.4,6.6,6.4
		c1.7,0,3.7-0.7,4.9-1.6V19h-2.1L86.9,22.3L86.9,22.3z M102.3,25.2L99.6,21c1.6-0.7,2.5-2.1,2.5-4c0-2.8-1.8-4.3-5.1-4.3h-5.2v12.5
		h2.4v-3.7H97c0.2,0,0.3,0,0.5,0l2.2,3.7L102.3,25.2L102.3,25.2z M94.2,14.8H97c1.8,0,2.8,0.8,2.8,2.3c0,1.6-1,2.3-2.8,2.3h-2.8
		V14.8L94.2,14.8z M104.7,12.7v12.5h9.4v-2.1h-7v-3.1h6.1v-2.1h-6.1v-3.1h6.8v-2.1H104.7L104.7,12.7z M124.4,15.9l1-2.1
		c-1.2-0.8-2.9-1.3-4.5-1.3c-2.8,0-4.7,1.4-4.7,3.6c0,4.4,6.7,3,6.7,5.6c0,0.9-0.8,1.4-2.1,1.4s-3-0.7-4.3-1.8l-1,2
		c1.3,1.2,3.3,2,5.3,2c2.8,0,4.8-1.4,4.8-3.7c0-4.5-6.7-3.1-6.7-5.6c0-0.8,0.7-1.2,1.9-1.2C121.6,14.7,123,15.1,124.4,15.9
		L124.4,15.9z M135.6,15.9l1-2.1c-1.2-0.8-2.9-1.3-4.5-1.3c-2.8,0-4.7,1.4-4.7,3.6c0,4.4,6.7,3,6.7,5.6c0,0.9-0.8,1.4-2.1,1.4
		s-3-0.7-4.3-1.8l-1,2c1.3,1.2,3.3,2,5.3,2c2.8,0,4.8-1.4,4.8-3.7c0-4.5-6.7-3.1-6.7-5.6c0-0.8,0.7-1.2,1.9-1.2
		C132.8,14.7,134.2,15.1,135.6,15.9L135.6,15.9z M138.9,12.7v12.5h2.4V12.7H138.9L138.9,12.7z M150.1,12.6c-3.8,0-6.7,2.7-6.7,6.3
		c0,3.6,2.9,6.4,6.7,6.4s6.7-2.8,6.7-6.4C156.7,15.3,153.8,12.6,150.1,12.6L150.1,12.6z M150.1,14.7c2.3,0,4.2,1.8,4.2,4.2
		s-1.9,4.2-4.2,4.2c-2.3,0-4.3-1.9-4.3-4.2C145.8,16.6,147.8,14.7,150.1,14.7L150.1,14.7z M158.8,12.7v12.5h2.3v-8.5l6.4,8.5h2.3
		V12.7h-2.3v8.5l-6.4-8.5H158.8L158.8,12.7z"/>
	<path class="st1" d="M177.4,12.7v12.5h2.4V12.7H177.4L177.4,12.7z M181.5,12.7v2.1h3.9v10.4h2.4V14.8h3.9v-2.1H181.5L181.5,12.7z"
		/>
</g>
</svg>